HIERARCHY
ROOT Hips
{
	OFFSET	0.00	0.00	0.00
	CHANNELS 6 Xposition Yposition Zposition Zrotation Xrotation Yrotation
	JOINT LeftUpLeg
	{
		OFFSET	 0.126116	-0.014019	-0.065224
		CHANNELS 3 Zrotation Xrotation Yrotation
		JOINT LeftLeg
		{
			OFFSET	 0.000000	 0.000000	 0.569914
			CHANNELS 3 Zrotation Xrotation Yrotation
			JOINT LeftFoot
			{
				OFFSET	 0.000000	 0.000000	 0.544423
				CHANNELS 3 Zrotation Xrotation Yrotation
				JOINT LeftToeBase
				{
					OFFSET	 0.000000	 0.000000	 0.207117
					CHANNELS 3 Zrotation Xrotation Yrotation
					End Site
					{
						OFFSET	 0.000000	 0.000000	 0.207117
					}
				}
			}
		}
	}
	JOINT RightUpLeg
	{
		OFFSET	-0.124023	-0.008373	-0.065224
		CHANNELS 3 Zrotation Xrotation Yrotation
		JOINT RightLeg
		{
			OFFSET	 0.000000	 0.000000	 0.570047
			CHANNELS 3 Zrotation Xrotation Yrotation
			JOINT RightFoot
			{
				OFFSET	 0.000000	 0.000000	 0.544354
				CHANNELS 3 Zrotation Xrotation Yrotation
				JOINT RightToeBase
				{
					OFFSET	 0.000000	 0.000000	 0.207540
					CHANNELS 3 Zrotation Xrotation Yrotation
					End Site
					{
						OFFSET	 0.000000	 0.000000	 0.207540
					}
				}
			}
		}
	}
	JOINT Spine
	{
		OFFSET	 0.000184	-0.007763	 0.117403
		CHANNELS 3 Zrotation Xrotation Yrotation
		JOINT Spine1
		{
			OFFSET	 0.000000	 0.000000	 0.137269
			CHANNELS 3 Zrotation Xrotation Yrotation
			JOINT Spine2
			{
				OFFSET	 0.000000	 0.000000	 0.156879
				CHANNELS 3 Zrotation Xrotation Yrotation
				JOINT LeftShoulder
				{
					OFFSET	 0.080501	-0.002496	 0.160144
					CHANNELS 3 Zrotation Xrotation Yrotation
					JOINT LeftArm
					{
						OFFSET	 0.000000	 0.000000	 0.164363
						CHANNELS 3 Zrotation Xrotation Yrotation
						JOINT LeftForeArm
						{
							OFFSET	 0.000000	 0.000000	 0.364576
							CHANNELS 3 Zrotation Xrotation Yrotation
							JOINT LeftHand
							{
								OFFSET	 0.000000	 0.000000	 0.360812
								CHANNELS 3 Zrotation Xrotation Yrotation
								JOINT LeftHandIndex1
								{
									OFFSET	 0.000000	 0.000000	 0.086006
									CHANNELS 3 Zrotation Xrotation Yrotation
									JOINT LeftHandIndex2
									{
										OFFSET	 0.000000	 0.000000	 0.047236
										CHANNELS 3 Zrotation Xrotation Yrotation
										JOINT LeftHandIndex3
										{
											OFFSET	-0.004284	-0.000551	 0.038166
											CHANNELS 3 Zrotation Xrotation Yrotation
											End Site
											{
												OFFSET	-0.004284	-0.000551	 0.038166
											}
										}
									}
								}
							}
						}
					}
				}
				JOINT Neck
				{
					OFFSET	 0.000000	 0.000000	 0.176489
					CHANNELS 3 Zrotation Xrotation Yrotation
					JOINT Head
					{
						OFFSET	 0.000000	-0.001747	 0.077940
						CHANNELS 3 Zrotation Xrotation Yrotation
						End Site
						{
							OFFSET	 0.000000	-0.001747	 0.077940
						}
					}
				}
				JOINT RightShoulder
				{
					OFFSET	-0.080363	 0.000306	 0.159706
					CHANNELS 3 Zrotation Xrotation Yrotation
					JOINT RightArm
					{
						OFFSET	 0.000000	 0.000000	 0.164196
						CHANNELS 3 Zrotation Xrotation Yrotation
						JOINT RightForeArm
						{
							OFFSET	 0.000000	 0.000000	 0.365611
							CHANNELS 3 Zrotation Xrotation Yrotation
							JOINT RightHand
							{
								OFFSET	 0.000000	 0.000000	 0.360648
								CHANNELS 3 Zrotation Xrotation Yrotation
								JOINT RightHandIndex1
								{
									OFFSET	 0.000000	 0.000000	 0.069977
									CHANNELS 3 Zrotation Xrotation Yrotation
									JOINT RightHandIndex2
									{
										OFFSET	 0.000000	 0.000000	 0.052305
										CHANNELS 3 Zrotation Xrotation Yrotation
										JOINT RightHandIndex3
										{
											OFFSET	 0.009002	-0.000782	 0.042196
											CHANNELS 3 Zrotation Xrotation Yrotation
											End Site
											{
												OFFSET	 0.009002	-0.000782	 0.042196
											}
										}
									}
								}
							}
						}
					}
				}
			}
		}
	}
}
MOTION
Frames:    12
Frame Time: 0.03333334
-18.758440	-43.154090	 0.780093	-46.068470	 17.318370	 3.759499	 3.508915	-34.871180	 175.353100	-1.272394	-43.096490	-0.306144	-0.725536	 80.854880	 0.530475	-2.352195	 34.182280	-0.129363	-0.734054	-36.075740	-179.517900	-2.998974	-43.124060	-0.965373	-1.602287	 81.087660	 0.492869	 2.406715	 19.787420	-0.177321	 1.121082	 13.867830	 1.240806	 1.260565	-0.196258	-1.841042	 0.930572	-6.314605	 0.112458	-125.696000	 89.281540	-141.868900	 54.949060	 65.907110	-61.489450	-10.380550	-1.407586	-21.478440	-0.492371	 10.817380	-5.468599	-5.678006	-12.251920	-1.360863	-5.213516	-0.193813	 3.566525	-1.378229	 35.397820	-2.634230	 0.810336	 0.144195	-3.814297	 0.305474	-7.332511	 1.324610	 93.698140	 85.944690	 172.010100	-61.543160	 74.748470	 71.070010	-2.366345	-15.009570	 30.260330	-26.515740	 9.694473	 9.702010	-9.932117	-10.053070	-38.925570	 5.070815	-0.697434	-9.399699	-2.350882	 35.473990	 5.254307
-18.762210	-43.159580	 0.780546	-45.979810	 17.616080	 3.773433	 3.599244	-34.874600	 175.491900	-1.613980	-43.059040	-0.489176	-0.837370	 81.164280	 0.419886	-2.353859	 33.954990	-0.123999	-0.754256	-35.932210	-179.450400	-2.872211	-42.873990	-0.893564	-1.603230	 81.604240	 0.604220	 2.406446	 20.085010	-0.171420	 1.099133	 13.742870	 1.155361	 1.204737	-0.322276	-1.883388	 0.840245	-6.477015	 0.102724	-125.311100	 89.273410	-142.247600	 56.909520	 66.493230	-62.154270	-9.921228	-1.475014	-20.731370	-0.323005	 10.154410	-5.455741	-5.540777	-12.074910	-1.057379	-5.213516	-0.193813	 3.566525	-1.378229	 35.397820	-2.634230	 0.786263	 0.052347	-3.760242	 0.268960	-7.573100	 1.408229	 93.695660	 85.962110	 172.041800	-59.838330	 75.833320	 68.587250	-3.004632	-14.234040	 27.346500	-27.212320	 9.055851	 9.684772	-9.712787	-9.615131	-38.727030	 5.070815	-0.697434	-9.399699	-2.350882	 35.473990	 5.254307
-18.765830	-43.164720	 0.780731	-45.925570	 17.901400	 3.787635	 3.613821	-34.939300	 175.555000	-1.855605	-43.120060	-0.648120	-0.928595	 81.470280	 0.320346	-2.353274	 34.035470	-0.125892	-0.772394	-35.809830	-179.389400	-2.723039	-42.682560	-0.805270	-1.584736	 82.102280	 0.713704	 2.405998	 20.525410	-0.162657	 1.103602	 13.597640	 1.084297	 1.161890	-0.448658	-1.926856	 0.737499	-6.634477	 0.091166	-124.615700	 89.257430	-142.923700	 58.727680	 66.986210	-62.793170	-9.429589	-1.546010	-20.057500	-0.138072	 9.430035	-5.442339	-5.370844	-11.925890	-0.674790	-5.213516	-0.193813	 3.566525	-1.378229	 35.397820	-2.634230	 0.755199	-0.049117	-3.683481	 0.210539	-7.793040	 1.397661	 93.682850	 85.978390	 172.092200	-57.285570	 76.924420	 65.114210	-3.543412	-13.567780	 24.912630	-27.907380	 8.356880	 9.668756	-9.494308	-9.178401	-38.526880	 5.070815	-0.697434	-9.399699	-2.350882	 35.473990	 5.254307
-18.769600	-43.169770	 0.780803	-45.929580	 18.173010	 3.806815	 3.584450	-34.960140	 175.584800	-1.997277	-43.251320	-0.767391	-1.000446	 81.774980	 0.250346	-2.350897	 34.356220	-0.133482	-0.764108	-35.672740	-179.421700	-2.573910	-42.519650	-0.700290	-1.546171	 82.552700	 0.819207	 2.405477	 20.953560	-0.154113	 1.130505	 13.446290	 1.044162	 1.132719	-0.591231	-1.957831	 0.628938	-6.805254	 0.078673	-123.480900	 89.230770	-144.027400	 60.478820	 67.429660	-63.416650	-8.884452	-1.627694	-19.418300	 0.082784	 8.603246	-5.427819	-5.123428	-11.685440	-0.115395	-5.213516	-0.193813	 3.566525	-1.378229	 35.397820	-2.634230	 0.732042	-0.170754	-3.591064	 0.137008	-8.019101	 1.305165	 93.658910	 85.994880	 172.165300	-53.868920	 77.975430	 60.711070	-3.997174	-13.019350	 22.905300	-28.590150	 7.545135	 9.633829	-9.278034	-8.736382	-38.332720	 5.070815	-0.697434	-9.399699	-2.350882	 35.473990	 5.254307
-18.773320	-43.174800	 0.780830	-46.005100	 18.409110	 3.832091	 3.559540	-34.976910	 175.620900	-2.060150	-43.422610	-0.832344	-1.044160	 82.060860	 0.216168	-2.347190	 34.838490	-0.144995	-0.748944	-35.496510	-179.455900	-2.422420	-42.371940	-0.589999	-1.492619	 82.908150	 0.910455	 2.405033	 21.276960	-0.147638	 1.184510	 13.315930	 1.021060	 1.131676	-0.751835	-1.956428	 0.538414	-6.995536	 0.068236	-121.806600	 89.188190	-145.660400	 62.116020	 67.846050	-63.980630	-8.331631	-1.712012	-18.817050	 0.316279	 7.664213	-5.412640	-4.783788	-11.363390	 0.660391	-5.213516	-0.193813	 3.566525	-1.378229	 35.397820	-2.634230	 0.739062	-0.320461	-3.501530	 0.074646	-8.255397	 1.228883	 93.665760	 86.034780	 172.210800	-49.616200	 78.921420	 55.462920	-4.352849	-12.579060	 21.296960	-29.207480	 6.620541	 9.597156	-9.079546	-8.309717	-38.166840	 5.070815	-0.697434	-9.399699	-2.350882	 35.473990	 5.254307
-18.777450	-43.180360	 0.780936	-46.172780	 18.647910	 3.876286	 3.544441	-34.963150	 175.631800	-2.089060	-43.610040	-0.869456	-1.076852	 82.328700	 0.204177	-2.342422	 35.434440	-0.159363	-0.736034	-35.291470	-179.505000	-2.303080	-42.254190	-0.502258	-1.449522	 83.186400	 0.983031	 2.404786	 21.448960	-0.144191	 1.262914	 13.185120	 0.983021	 1.153817	-0.931530	-1.904355	 0.458343	-7.207865	 0.058933	-119.218900	 89.115300	-148.200900	 63.704880	 68.342390	-64.444980	-7.833338	-1.790637	-18.196600	 0.530381	 6.463213	-5.395720	-4.381917	-10.974050	 1.589354	-5.213516	-0.193813	 3.566525	-1.378229	 35.397820	-2.634230	 0.778148	-0.472118	-3.405171	 0.019251	-8.535328	 1.228826	 93.756700	 86.134110	 172.177300	-44.206460	 79.778630	 49.014550	-4.623343	-12.130450	 19.823040	-29.727560	 5.435798	 9.557009	-8.903361	-7.886637	-38.049130	 5.070815	-0.697434	-9.399699	-2.350882	 35.473990	 5.254307
-18.779890	-43.183660	 0.781105	-46.299990	 18.791120	 3.912580	 3.546639	-34.916240	 175.649600	-2.117970	-43.689160	-0.892877	-1.097678	 82.446210	 0.197820	-2.339665	 35.765910	-0.167442	-0.731264	-35.255460	-179.556000	-2.284671	-42.206460	-0.486918	-1.446010	 83.289670	 1.003363	 2.404694	 21.512040	-0.142921	 1.302805	 13.106510	 0.937869	 1.166616	-1.028483	-1.849716	 0.418891	-7.322250	 0.054276	-117.239800	 89.054570	-150.167300	 64.527100	 68.661570	-64.620510	-7.629674	-1.819441	-17.850410	 0.596667	 5.643575	-5.386142	-4.196731	-10.770350	 2.021258	-5.213516	-0.193813	 3.566525	-1.378229	 35.397820	-2.634230	 0.812000	-0.524914	-3.335608	-0.004686	-8.715602	 1.266525	 93.853400	 86.218770	 172.114300	-40.701650	 80.178950	 44.906320	-4.691114	-11.873120	 19.102900	-29.897220	 4.626519	 9.534435	-8.821004	-7.691946	-37.991480	 5.070815	-0.697434	-9.399699	-2.350882	 35.473990	 5.254307
-18.782550	-43.187420	 0.781480	-46.464820	 18.967120	 3.950535	 3.560884	-34.852170	 175.684100	-2.192688	-43.708600	-0.939138	-1.129646	 82.516510	 0.177413	-2.336570	 36.129970	-0.176351	-0.740412	-35.295250	-179.566400	-2.358886	-42.168290	-0.542599	-1.490007	 83.341680	 0.988539	 2.404631	 21.555610	-0.142050	 1.331266	 13.006000	 0.873947	 1.173179	-1.121009	-1.767291	 0.384954	-7.431244	 0.050239	-114.664400	 88.964860	-152.742900	 65.335330	 69.026900	-64.742560	-7.501046	-1.830524	-17.489090	 0.592693	 4.614727	-5.376281	-4.060832	-10.619210	 2.340159	-5.213516	-0.193813	 3.566525	-1.378229	 35.397820	-2.634230	 0.854709	-0.543784	-3.229759	-0.014907	-8.918630	 1.332185	 94.002210	 86.332590	 171.998800	-36.764260	 80.508480	 40.309570	-4.678601	-11.595170	 18.447520	-29.924480	 3.610410	 9.511219	-8.752872	-7.567244	-37.917660	 5.070815	-0.697434	-9.399699	-2.350882	 35.473990	 5.254307
-18.785070	-43.190960	 0.782136	-46.623010	 19.147540	 3.955342	 3.571483	-34.805230	 175.719500	-2.291208	-43.664300	-1.000785	-1.165053	 82.508540	 0.144541	-2.333637	 36.465290	-0.184633	-0.770167	-35.324720	-179.533600	-2.445481	-42.141920	-0.618565	-1.549402	 83.361650	 0.964321	 2.404607	 21.573030	-0.141699	 1.340123	 12.901310	 0.828015	 1.167866	-1.199008	-1.672996	 0.361335	-7.522975	 0.047446	-112.109600	 88.857050	-155.309200	 66.016620	 69.336200	-64.886290	-7.432971	-1.833135	-17.177430	 0.551330	 3.536481	-5.368152	-3.986471	-10.607620	 2.515858	-5.213516	-0.193813	 3.566525	-1.378229	 35.397820	-2.634230	 0.890804	-0.585593	-3.102264	-0.005510	-9.062222	 1.416501	 94.190700	 86.449900	 171.822600	-33.375030	 80.692800	 36.328620	-4.745887	-11.400460	 17.959690	-29.934330	 2.545799	 9.492431	-8.720250	-7.565882	-37.840820	 5.070815	-0.697434	-9.399699	-2.350882	 35.473990	 5.254307
-18.787440	-43.194270	 0.782973	-46.786580	 19.327290	 3.935412	 3.575973	-34.791660	 175.750300	-2.408875	-43.597070	-1.077198	-1.201208	 82.444820	 0.097888	-2.330830	 36.780360	-0.192451	-0.807482	-35.401960	-179.454800	-2.532068	-42.116720	-0.699835	-1.614070	 83.386010	 0.939683	 2.404568	 21.592230	-0.141311	 1.337888	 12.808870	 0.807672	 1.155968	-1.259208	-1.574559	 0.340938	-7.593045	 0.044974	-110.216700	 88.761730	-157.217300	 66.598680	 69.586400	-65.057930	-7.286939	-1.863117	-16.870910	 0.597944	 2.379110	-5.360820	-3.929830	-10.753150	 2.650479	-5.213516	-0.193813	 3.566525	-1.378229	 35.397820	-2.634230	 0.921944	-0.656940	-2.967191	 0.013487	-9.132075	 1.519367	 94.405200	 86.564590	 171.605300	-30.382070	 80.787610	 32.799330	-4.862448	-11.280390	 17.605940	-29.938790	 1.403985	 9.478035	-8.691628	-7.591007	-37.754700	 5.070815	-0.697434	-9.399699	-2.350882	 35.473990	 5.254307
-18.789970	-43.197600	 0.783890	-46.968050	 19.515610	 3.909983	 3.575466	-34.785990	 175.769100	-2.545084	-43.504510	-1.167500	-1.242023	 82.344310	 0.040804	-2.328016	 37.087400	-0.200134	-0.848173	-35.428410	-179.368500	-2.629909	-42.078580	-0.790491	-1.687883	 83.403700	 0.913072	 2.404528	 21.622720	-0.140704	 1.330570	 12.716180	 0.814642	 1.138471	-1.308719	-1.484107	 0.320934	-7.649081	 0.042490	-108.840000	 88.680920	-158.609500	 67.077070	 69.793840	-65.232510	-6.954505	-1.952831	-16.565680	 0.844317	 1.070627	-5.353457	-3.859525	-10.880220	 2.816536	-5.213516	-0.193813	 3.566525	-1.378229	 35.397820	-2.634230	 0.951782	-0.747290	-2.823389	 0.041071	-9.153268	 1.632723	 94.625400	 86.670750	 171.376200	-27.721350	 80.814270	 29.641660	-5.004779	-11.220830	 17.367520	-29.912250	 0.114500	 9.468623	-8.659519	-7.624412	-37.654460	 5.070815	-0.697434	-9.399699	-2.350882	 35.473990	 5.254307
-18.792370	-43.200500	 0.784684	-47.118640	 19.653840	 3.890846	 3.574236	-34.704240	 175.777600	-2.639411	-43.408480	-1.230253	-1.270206	 82.255060	-0.000749	-2.325722	 37.332730	-0.206311	-0.857419	-35.355760	-179.305200	-2.752966	-42.022250	-0.879429	-1.761045	 83.399190	 0.886202	 2.404510	 21.633590	-0.140476	 1.317148	 12.632810	 0.831244	 1.114089	-1.340047	-1.419083	 0.295408	-7.682870	 0.039198	-107.988700	 88.628550	-159.483900	 67.359100	 69.934690	-65.347810	-6.588311	-2.058486	-16.339100	 1.149683	-0.155022	-5.348358	-3.860517	-10.954470	 2.814351	-5.213516	-0.193813	 3.566525	-1.378229	 35.397820	-2.634230	 0.977875	-0.792467	-2.703288	 0.058964	-9.175546	 1.694542	 94.771640	 86.739910	 171.227900	-25.840650	 80.789000	 27.383260	-5.121722	-11.210570	 17.260960	-29.836990	-1.093652	 9.466815	-8.630306	-7.658993	-37.560410	 5.070815	-0.697434	-9.399699	-2.350882	 35.473990	 5.254307
